<?xml version="1.0" standalone="no"?>
<!DOCTYPE svg PUBLIC "-//W3C//DTD SVG 20010904//EN"
 "http://www.w3.org/TR/2001/REC-SVG-20010904/DTD/svg10.dtd">
<svg version="1.0" xmlns="http://www.w3.org/2000/svg"
 width="260.000000pt" height="260.000000pt" viewBox="0 0 260.000000 260.000000"
 preserveAspectRatio="xMidYMid meet">
<metadata>
Created by potrace 1.14, written by Peter Selinger 2001-2017
</metadata>
<g transform="translate(0.000000,260.000000) scale(0.100000,-0.100000)"
fill="#000000" stroke="none">
<path d="M411 2532 c-5 -10 -20 -18 -32 -19 -13 -1 -29 -9 -35 -18 -6 -8 -18
-15 -27 -15 -21 0 -179 -158 -171 -171 3 -5 -3 -18 -14 -27 -10 -9 -17 -22
-15 -28 2 -7 -4 -19 -13 -28 -13 -14 -17 -38 -17 -122 0 -57 2 -107 6 -110 3
-3 3 -12 1 -19 -10 -25 -9 -115 1 -115 6 0 6 -3 0 -8 -6 -4 -9 -18 -8 -32 2
-14 3 -29 3 -35 0 -5 -1 -67 -2 -137 -1 -71 1 -131 5 -134 3 -3 3 -12 1 -19
-10 -25 -9 -115 1 -115 6 0 6 -3 0 -8 -6 -4 -9 -18 -8 -32 2 -14 3 -29 3 -35
0 -5 -1 -67 -2 -137 -1 -71 1 -131 5 -134 3 -3 3 -12 1 -19 -10 -25 -9 -115 1
-115 6 0 6 -3 0 -8 -6 -4 -9 -18 -8 -32 2 -14 3 -29 3 -35 -1 -191 -1 -262 0
-270 1 -5 1 -14 0 -20 -7 -31 -4 -115 5 -115 6 0 4 -4 -3 -8 -10 -7 -8 -14 6
-33 11 -13 18 -32 16 -42 -1 -11 0 -16 3 -13 9 8 34 -22 31 -37 -3 -15 152
-173 166 -169 5 2 17 -5 27 -14 10 -9 27 -14 39 -11 11 3 18 2 15 -3 -9 -14
25 -33 59 -34 19 -1 32 2 29 6 -2 5 6 4 19 -1 13 -5 33 -5 46 0 12 5 22 5 22
0 0 -10 40 -8 57 2 6 4 15 3 18 -3 5 -8 12 -7 23 2 13 11 14 11 7 -2 -7 -13
-6 -13 7 -2 10 8 19 9 22 3 7 -10 24 -10 43 2 6 4 15 2 19 -4 4 -8 9 -7 15 2
7 11 9 11 9 1 0 -9 5 -10 19 -2 14 7 21 6 25 -3 5 -9 7 -9 12 0 3 7 11 10 18
7 22 -8 104 -10 99 -2 -2 5 6 4 19 -1 13 -5 33 -5 46 0 12 5 22 5 22 0 0 -10
40 -8 57 2 6 4 15 3 18 -3 5 -8 12 -7 23 2 13 11 14 11 7 -2 -7 -13 -6 -13 7
-2 10 8 19 9 22 3 7 -10 24 -10 43 2 6 4 15 2 19 -4 4 -8 9 -7 15 2 7 11 9 11
9 1 0 -9 5 -10 19 -2 14 7 21 6 25 -3 5 -9 7 -9 12 0 3 7 11 10 18 7 22 -8
104 -10 99 -2 -2 5 6 4 19 -1 13 -5 33 -5 46 0 12 5 22 5 22 0 0 -10 40 -8 57
2 6 4 15 3 18 -3 5 -8 12 -7 23 2 13 11 14 11 7 -2 -7 -13 -6 -13 7 -2 10 8
19 9 22 3 7 -10 24 -10 43 2 6 4 15 2 19 -4 4 -8 9 -7 15 2 7 11 9 11 9 1 0
-9 5 -10 19 -2 14 7 21 6 25 -3 5 -9 7 -9 12 0 3 7 11 10 18 7 22 -8 104 -10
99 -2 -2 5 6 4 19 -1 13 -5 33 -5 46 0 12 5 22 5 22 0 0 -10 40 -8 57 2 6 4
15 3 18 -3 5 -8 12 -7 23 2 13 11 14 11 7 -2 -7 -13 -6 -13 7 -2 11 9 18 10
23 2 3 -6 12 -7 18 -3 7 4 22 6 34 5 14 -2 26 4 33 19 9 15 14 18 20 9 5 -9
12 -7 26 8 11 10 29 18 42 17 12 -1 22 3 22 8 0 5 34 43 75 84 41 41 73 78 70
83 -3 5 3 18 14 29 11 11 18 29 16 41 -2 11 0 18 4 15 5 -3 12 3 16 13 13 28
14 42 4 42 -6 0 -5 8 1 20 8 15 8 20 -2 20 -8 0 -9 3 -3 8 6 4 10 21 10 37 0
17 -4 33 -10 37 -7 5 -7 8 0 8 6 0 10 16 10 35 0 19 -4 35 -10 35 -7 0 -7 3 0
8 6 4 10 21 10 37 0 17 -4 33 -10 37 -7 5 -7 8 0 8 6 0 10 16 10 35 0 19 -4
35 -10 35 -7 0 -7 3 0 8 6 4 10 21 10 37 0 17 -4 33 -10 37 -7 5 -7 8 0 8 6 0
10 16 10 35 0 19 -4 35 -10 35 -7 0 -7 3 0 8 6 4 10 21 10 37 0 17 -4 33 -10
37 -7 5 -7 8 0 8 6 0 10 16 10 35 0 19 -4 35 -10 35 -7 0 -7 3 0 8 6 4 10 21
10 37 0 17 -4 33 -10 37 -7 5 -7 8 0 8 6 0 10 16 10 35 0 19 -4 35 -10 35 -7
0 -7 3 0 8 6 4 10 21 10 37 0 17 -4 33 -10 37 -7 5 -7 8 0 8 6 0 10 16 10 35
0 19 -4 35 -10 35 -7 0 -7 3 0 8 6 4 10 21 10 37 0 17 -4 33 -10 37 -7 5 -7 8
0 8 6 0 10 16 10 35 0 19 -4 35 -10 35 -7 0 -7 3 0 8 6 4 10 21 10 37 0 17 -4
33 -10 37 -7 5 -7 8 0 8 6 0 10 16 10 35 0 19 -4 35 -10 35 -7 0 -7 3 0 8 6 4
10 21 10 37 0 17 -4 33 -10 37 -7 5 -7 8 0 8 6 0 10 16 10 35 0 19 -4 35 -10
35 -7 0 -7 3 0 8 6 4 10 21 10 37 0 17 -4 33 -10 37 -7 5 -7 8 0 8 6 0 10 16
10 35 0 19 -4 35 -10 35 -7 0 -7 3 0 8 13 9 13 72 0 72 -7 0 -7 3 0 8 16 11
12 46 -9 64 -10 10 -16 24 -13 31 3 8 -3 20 -13 27 -10 7 -17 22 -15 32 2 10
0 16 -6 13 -5 -4 -9 -2 -9 4 0 13 -142 155 -158 159 -7 1 -12 -4 -12 -10 -1
-7 -7 -1 -15 14 -10 18 -20 25 -34 21 -13 -3 -23 2 -30 15 -9 17 -16 19 -41
12 -17 -5 -30 -5 -30 0 0 5 -13 5 -30 0 -17 -5 -30 -5 -30 -1 0 9 -85 5 -100
-4 -5 -3 -11 -1 -14 4 -4 6 -18 6 -36 1 -17 -5 -30 -5 -30 0 0 5 -13 5 -30 0
-16 -5 -30 -5 -30 -1 0 9 -85 5 -100 -4 -5 -3 -11 -1 -14 4 -4 6 -18 6 -36 1
-17 -5 -30 -5 -30 0 0 5 -13 5 -30 0 -17 -5 -30 -5 -30 -1 0 9 -85 5 -100 -4
-5 -3 -11 -1 -14 4 -4 6 -18 6 -36 1 -17 -5 -30 -5 -30 0 0 5 -13 5 -30 0 -16
-5 -30 -5 -30 -1 0 9 -85 5 -100 -4 -5 -3 -11 -1 -14 4 -4 6 -18 6 -36 1 -17
-5 -30 -5 -30 0 0 5 -13 5 -30 0 -16 -5 -30 -5 -30 -1 0 9 -85 5 -100 -4 -5
-3 -11 -1 -14 4 -4 6 -18 6 -36 1 -17 -5 -30 -5 -30 0 0 5 -13 5 -30 0 -16 -5
-30 -5 -30 -1 0 9 -85 5 -100 -4 -5 -3 -11 -1 -14 4 -4 6 -18 6 -36 1 -17 -5
-30 -5 -30 0 0 5 -13 5 -30 0 -16 -5 -30 -5 -30 -1 0 7 -60 7 -96 0 -5 -1 -11
-1 -14 1 -16 5 -77 4 -73 -2 2 -5 -7 -4 -21 2 -21 7 -27 6 -35 -8z"/>
</g>
</svg>
